<?xml version="1.0" standalone="no"?>
<!DOCTYPE svg PUBLIC "-//W3C//DTD SVG 20010904//EN"
 "http://www.w3.org/TR/2001/REC-SVG-20010904/DTD/svg10.dtd">
<svg version="1.0" xmlns="http://www.w3.org/2000/svg"
 width="392.000000pt" height="386.000000pt" viewBox="0 0 392.000000 386.000000"
 preserveAspectRatio="xMidYMid meet">

<g transform="translate(0.000000,386.000000) scale(0.100000,-0.100000)"
fill="#000000" stroke="none">
<path d="M1133 3853 c-7 -2 -13 -10 -13 -17 0 -7 42 -109 93 -227 52 -118 339
-780 638 -1471 l544 -1258 208 0 c194 0 208 1 203 18 -3 9 -94 213 -201 452
-108 239 -327 729 -488 1087 -161 359 -295 653 -298 653 -4 0 -42 -76 -85
-170 -43 -93 -82 -166 -85 -162 -4 4 -108 241 -232 527 -124 286 -231 533
-238 548 -12 26 -21 31 -46 20z"/>
<path d="M1168 1703 c-202 -433 -370 -796 -374 -806 -6 -16 6 -17 201 -15
l206 3 82 180 82 180 239 2 c131 2 240 4 241 5 2 2 -32 83 -74 180 l-76 177
-81 3 -81 3 80 178 c45 97 84 174 87 170 4 -5 78 -172 165 -373 87 -201 209
-484 272 -630 63 -146 173 -400 245 -565 71 -165 133 -304 138 -308 14 -15 52
3 47 21 -5 19 -1003 2325 -1021 2360 -11 21 -47 -53 -378 -765z"/>
</g>
</svg>
